<?xml version="1.0" standalone="no"?>
<!DOCTYPE svg PUBLIC "-//W3C//DTD SVG 20010904//EN"
 "http://www.w3.org/TR/2001/REC-SVG-20010904/DTD/svg10.dtd">
<svg version="1.0" xmlns="http://www.w3.org/2000/svg"
 width="736.000000pt" height="736.000000pt" viewBox="0 0 736.000000 736.000000"
 preserveAspectRatio="xMidYMid meet">

<g transform="translate(0.000000,736.000000) scale(0.100000,-0.100000)"
fill="#000000" stroke="none">
<path d="M3163 7263 c-4 -10 -19 -29 -34 -43 -15 -14 -28 -30 -30 -37 -18 -61
-565 -605 -642 -638 -12 -5 -44 -29 -72 -52 -27 -24 -55 -43 -61 -43 -6 0 -19
-9 -29 -20 -10 -11 -25 -20 -34 -20 -46 0 -77 -59 -52 -99 15 -24 90 -16 120
13 15 14 30 26 34 26 12 0 188 158 310 278 104 102 401 419 419 447 l19 30 -7
-30 c-4 -16 -15 -45 -26 -62 -21 -36 -17 -67 10 -82 28 -15 61 6 82 51 10 24
29 61 41 83 40 75 49 97 55 135 5 30 2 42 -15 59 -26 26 -79 28 -88 4z"/>
<path d="M3227 6942 c-10 -10 -17 -25 -17 -34 0 -18 41 -58 61 -58 15 0 143
-29 169 -38 17 -6 21 -7 110 -21 36 -6 102 -11 147 -11 45 0 85 -4 88 -10 4
-6 117 -10 305 -10 188 0 301 4 305 10 8 12 65 13 65 1 0 -7 -143 -111 -154
-111 -3 0 -44 -25 -91 -55 -46 -30 -88 -55 -92 -55 -19 -1 -53 -40 -53 -60 0
-20 4 -22 30 -16 17 3 46 17 64 31 18 13 59 39 92 56 32 17 70 40 84 51 28 22
91 52 103 49 4 -1 22 10 40 23 18 13 48 27 68 31 23 4 50 20 69 40 31 32 32
36 20 64 -7 17 -20 32 -29 32 -28 2 -56 -3 -66 -11 -6 -5 -52 -12 -103 -16
-51 -4 -95 -11 -98 -15 -7 -12 -501 -12 -508 -1 -3 5 -43 12 -88 15 -46 3 -97
13 -113 21 -17 9 -44 16 -61 16 -17 0 -34 3 -38 7 -3 4 -12 8 -19 9 -84 16
-122 26 -131 33 -6 5 -26 12 -44 16 -18 4 -36 13 -39 21 -7 20 -57 17 -76 -4z"/>
<path d="M1677 6573 c-4 -3 -7 -27 -7 -53 0 -37 5 -53 24 -71 13 -14 34 -53
45 -87 12 -35 26 -71 30 -80 5 -9 29 -63 52 -119 24 -57 47 -103 51 -103 5 0
8 -6 8 -14 0 -13 28 -26 57 -26 34 0 70 78 44 95 -6 3 -22 31 -37 63 -14 31
-32 64 -39 72 -7 8 -16 25 -19 37 -6 19 -4 22 11 17 10 -4 23 -12 28 -18 6 -6
21 -17 35 -24 14 -7 39 -21 55 -31 38 -24 64 -26 72 -4 7 18 -29 52 -82 79
-46 23 -87 47 -120 70 -16 11 -38 24 -48 27 -9 4 -21 17 -27 31 -5 13 -14 27
-19 31 -6 3 -11 13 -11 21 0 8 -11 32 -25 54 -24 38 -59 53 -78 33z"/>
<path d="M4262 6497 c-36 -38 -28 -61 41 -121 59 -54 103 -83 157 -107 14 -6
52 -24 85 -40 86 -41 144 -61 195 -66 25 -3 53 -11 64 -19 17 -12 16 -13 -17
-19 -20 -4 -41 -13 -48 -21 -6 -8 -22 -14 -35 -14 -12 0 -25 -4 -29 -9 -3 -6
-26 -13 -50 -17 -25 -3 -48 -10 -50 -15 -3 -4 -12 -6 -20 -2 -9 3 -21 1 -28
-5 -6 -5 -34 -13 -61 -17 -58 -8 -86 -23 -86 -47 0 -14 8 -18 34 -18 19 0 37
4 41 9 3 6 14 8 25 6 11 -2 22 0 25 4 2 5 25 12 50 15 24 4 47 11 50 16 5 9
112 26 129 21 6 -1 19 2 30 8 12 6 48 15 81 20 49 9 65 17 87 43 19 21 25 35
18 42 -6 6 -10 18 -10 28 0 13 -8 18 -32 19 -86 4 -157 16 -174 30 -12 10
-122 70 -126 68 -12 -3 -61 25 -89 50 -18 17 -38 31 -44 31 -6 0 -16 9 -23 20
-7 11 -19 20 -27 20 -8 0 -22 12 -32 28 -50 82 -92 100 -131 59z"/>
<path d="M3154 6182 c-6 -10 -15 -33 -19 -52 -4 -19 -11 -39 -15 -45 -5 -5 -9
-14 -9 -20 -3 -24 -25 -91 -33 -99 -4 -6 -8 -16 -8 -24 0 -29 -104 -244 -142
-293 -15 -20 -28 -40 -28 -44 0 -5 -11 -23 -25 -41 -14 -18 -25 -37 -25 -43 0
-6 -4 -11 -10 -11 -5 0 -16 -12 -24 -27 -26 -49 -131 -157 -145 -149 -7 5 -9
12 -3 19 5 7 12 37 16 67 4 30 12 60 17 66 15 18 38 105 32 120 -3 8 1 21 8
30 9 11 13 46 13 105 0 90 -9 117 -37 106 -7 -3 -98 -175 -202 -384 -104 -208
-200 -393 -214 -410 -15 -19 -35 -33 -47 -33 -22 0 -47 -23 -57 -52 -4 -10
-11 -18 -17 -18 -5 0 -10 -6 -10 -12 -1 -19 -87 -114 -96 -106 -4 4 -2 13 3
20 6 7 13 55 17 107 3 52 10 99 15 105 4 6 11 37 15 69 4 37 13 64 26 77 24
24 26 53 5 70 -9 7 -14 19 -11 27 8 20 -22 28 -42 11 -23 -19 -106 -58 -124
-58 -8 0 -18 -4 -23 -9 -15 -14 -113 -17 -126 -4 -9 9 -6 19 10 39 11 15 21
31 21 37 0 6 11 24 24 42 13 17 31 47 40 66 9 19 36 70 60 114 54 97 59 149
21 185 -15 14 -31 21 -44 17 -21 -5 -102 8 -136 23 -11 5 -33 11 -49 15 -16 3
-39 13 -50 21 -18 12 -18 14 -3 14 9 0 17 4 17 8 0 4 10 9 23 9 30 2 105 22
144 39 17 8 36 14 42 14 6 0 11 10 11 21 0 20 -4 21 -50 16 -28 -3 -56 -10
-63 -14 -6 -4 -19 -8 -27 -8 -8 0 -20 -3 -25 -7 -6 -3 -28 -9 -50 -13 -22 -4
-46 -12 -52 -18 -9 -6 -18 -6 -27 2 -11 9 -19 9 -34 0 -16 -10 -24 -9 -43 4
-29 21 -89 23 -89 3 0 -8 -3 -21 -6 -29 -8 -23 35 -57 72 -57 18 0 35 -4 39
-10 3 -5 52 -31 108 -58 151 -73 173 -82 199 -82 13 0 29 -5 35 -11 11 -11 7
-38 -6 -49 -8 -6 -28 -52 -29 -64 0 -5 -4 -12 -9 -15 -11 -8 -30 -39 -48 -77
-7 -16 -47 -62 -87 -102 -58 -56 -73 -78 -75 -103 -4 -51 12 -62 82 -55 33 3
105 7 160 7 55 1 106 7 113 12 7 5 15 7 19 3 8 -8 -15 -201 -26 -225 -29 -59
-41 -90 -47 -116 -3 -16 -13 -40 -21 -53 -8 -13 -13 -37 -11 -55 3 -30 6 -32
47 -35 40 -3 46 0 73 32 16 20 33 36 36 36 4 0 16 -20 27 -45 12 -28 36 -56
64 -77 101 -74 97 -73 217 -73 66 0 117 4 125 11 13 10 59 25 59 20 0 -8 -35
-73 -45 -86 -7 -8 -16 -30 -20 -47 -3 -18 -11 -33 -15 -33 -15 0 -80 -61 -80
-75 0 -8 12 -23 27 -35 33 -26 68 -21 143 22 8 4 22 11 30 14 8 3 29 12 45 19
43 19 88 29 83 19 -2 -5 -11 -25 -20 -45 -9 -19 -24 -41 -32 -49 -19 -15 -21
-71 -4 -88 9 -9 5 -19 -17 -42 -16 -16 -32 -30 -35 -30 -4 0 -34 -26 -68 -57
-67 -65 -176 -153 -188 -153 -4 0 -15 -7 -24 -15 -21 -19 -130 -75 -145 -75
-7 0 -33 -21 -58 -46 -36 -35 -47 -53 -47 -77 0 -37 19 -100 48 -159 2 -5 -3
-8 -12 -8 -9 0 -16 -4 -16 -10 0 -8 -46 -59 -220 -242 l-55 -58 -114 20 c-177
31 -226 28 -327 -21 -46 -22 -84 -45 -84 -50 0 -5 -6 -9 -14 -9 -41 0 -172
-193 -191 -281 -4 -19 -12 -40 -19 -48 -16 -20 -15 -389 1 -399 6 -4 15 -21
19 -37 4 -17 20 -46 35 -66 16 -20 29 -41 29 -46 0 -13 44 -53 57 -53 6 0 17
-7 24 -16 19 -24 113 -64 148 -64 16 0 32 -4 35 -8 7 -12 135 -15 149 -4 7 5
32 12 57 15 44 6 149 54 181 83 8 8 20 14 25 14 12 0 84 72 84 84 0 5 11 24
25 42 14 18 25 39 25 46 0 8 5 19 10 24 6 6 16 47 22 92 10 64 9 100 -1 169
-7 48 -16 92 -21 98 -4 5 -11 27 -15 48 -7 34 -5 37 15 37 12 0 39 13 60 30
21 17 41 30 44 30 7 0 94 63 117 85 9 8 20 15 24 15 5 0 26 16 47 37 l37 36
11 -28 c8 -20 14 -25 21 -18 6 6 28 9 49 6 36 -5 45 -1 102 47 34 29 69 55 78
57 19 6 183 86 190 93 3 3 25 15 50 28 25 13 68 36 95 52 125 74 176 95 159
68 -9 -14 -12 -37 -17 -128 -8 -124 -19 -225 -27 -235 -4 -5 -11 -50 -15 -100
-4 -49 -11 -94 -15 -100 -4 -5 -13 -75 -20 -155 -7 -80 -16 -149 -20 -155 -4
-5 -11 -46 -15 -89 -4 -44 -11 -87 -15 -95 -5 -9 -14 -55 -20 -104 -7 -48 -16
-90 -21 -93 -5 -3 -9 -14 -9 -25 0 -11 -7 -22 -15 -25 -8 -4 -15 -11 -15 -16
0 -6 -11 -23 -25 -40 -28 -33 -33 -79 -10 -98 16 -14 20 -46 6 -54 -5 -3 -12
-30 -16 -61 -3 -30 -10 -57 -14 -60 -5 -2 -14 -39 -20 -82 -7 -43 -16 -85 -21
-94 -5 -9 -12 -34 -16 -55 -3 -22 -10 -43 -14 -49 -4 -5 -13 -41 -20 -80 -8
-38 -17 -75 -21 -80 -4 -6 -11 -49 -14 -95 -4 -47 -11 -89 -16 -95 -5 -5 -9
-21 -9 -37 0 -15 -9 -50 -20 -78 -11 -28 -20 -64 -20 -79 0 -16 -7 -34 -15
-41 -18 -15 -29 -88 -20 -129 5 -25 13 -32 41 -37 37 -7 42 -15 20 -33 -8 -7
-20 -32 -27 -56 -7 -25 -17 -45 -21 -45 -4 0 -8 -8 -8 -17 0 -10 -7 -31 -16
-48 -8 -16 -13 -37 -11 -47 3 -10 1 -21 -4 -24 -14 -8 -11 -107 5 -129 7 -11
16 -34 20 -51 4 -17 26 -49 49 -72 44 -43 152 -102 186 -102 11 0 23 -4 26
-10 8 -12 325 -14 325 -1 0 5 23 11 50 15 28 4 50 10 50 15 0 5 14 11 32 15
46 9 177 74 223 111 22 18 46 34 53 36 20 7 192 181 192 195 0 8 5 14 10 14 6
0 10 8 10 18 0 9 7 30 15 46 8 15 15 37 15 47 0 14 7 19 29 19 17 0 33 -5 36
-10 3 -6 26 -10 49 -10 56 0 106 46 106 96 0 18 5 36 11 39 6 4 9 24 8 44 -2
20 0 42 5 49 4 6 6 35 5 64 -4 89 14 398 23 404 4 3 8 71 8 152 l0 146 40 -39
c22 -21 40 -45 40 -52 0 -8 11 -18 25 -23 13 -5 31 -22 39 -39 9 -16 27 -38
41 -49 14 -11 25 -23 25 -27 0 -3 19 -29 42 -58 24 -28 49 -58 56 -66 6 -9 44
-53 82 -98 39 -45 70 -85 70 -88 0 -3 38 -49 85 -100 47 -52 85 -102 85 -111
0 -29 96 -11 134 25 l31 29 245 4 c144 3 253 9 265 15 11 6 47 15 80 21 63 10
156 35 190 50 84 38 135 66 135 73 0 5 5 9 11 9 7 0 31 16 55 35 23 19 46 35
51 35 19 0 150 146 157 175 4 16 13 33 19 37 8 5 12 42 12 107 0 80 -3 103
-17 118 -10 11 -18 27 -18 36 0 19 -172 197 -191 197 -7 0 -27 12 -46 26 -19
14 -46 29 -61 33 l-26 7 22 22 c12 12 22 26 22 32 0 5 9 14 20 20 11 6 20 18
20 28 0 18 -40 42 -210 129 -52 26 -97 50 -100 53 -12 12 -87 60 -94 60 -4 0
-22 11 -40 25 -18 13 -59 39 -92 56 -32 17 -78 47 -101 65 -23 19 -44 34 -47
34 -4 0 -49 29 -102 65 -53 36 -99 65 -103 65 -9 0 -221 214 -221 224 0 4 -34
45 -75 91 -41 45 -75 87 -75 93 0 6 -11 19 -25 30 -14 11 -25 23 -25 27 0 4
-15 25 -33 48 -18 23 -38 53 -45 67 -18 37 -33 60 -74 112 -21 26 -38 51 -38
57 0 6 -4 11 -8 11 -4 0 -13 12 -19 28 -7 15 -16 34 -21 42 -21 35 -42 87 -48
118 -7 36 -15 34 106 33 36 -1 85 -5 110 -11 25 -5 75 -9 112 -10 37 0 69 -4
73 -9 3 -6 27 -13 53 -16 26 -3 55 -10 64 -16 23 -12 124 -12 147 1 13 7 20
26 25 69 4 33 11 63 17 66 5 4 7 11 4 16 -4 5 9 9 28 9 18 0 37 3 41 7 11 12
148 33 172 27 12 -3 25 -1 28 4 3 5 21 8 40 5 19 -2 37 0 41 6 3 7 43 11 94
11 98 0 113 -8 126 -67 6 -29 45 -73 65 -73 4 0 49 -42 101 -93 56 -55 116
-104 147 -120 159 -80 389 -21 549 142 40 41 73 80 73 88 0 7 6 16 14 19 8 3
18 20 22 37 4 18 13 41 21 53 7 12 16 45 20 73 3 28 10 54 14 57 13 7 11 211
-1 219 -5 3 -10 19 -10 35 0 27 -6 47 -33 110 -25 58 -136 179 -164 180 -7 0
-13 4 -13 9 0 11 -120 70 -150 74 -11 2 -23 6 -26 10 -12 11 -222 8 -229 -3
-5 -7 -11 -8 -19 -1 -7 6 -17 6 -26 1 -8 -5 -17 -7 -21 -4 -4 2 -10 0 -14 -6
-3 -5 -13 -10 -22 -10 -8 0 -32 -13 -52 -28 -20 -15 -48 -34 -62 -41 -28 -14
-149 -143 -149 -159 0 -5 -8 -16 -18 -25 -21 -19 -122 -24 -122 -7 0 6 -20 10
-45 10 -26 0 -58 6 -73 14 -15 7 -54 17 -88 21 -80 9 -86 13 -74 55 18 62 13
114 -14 139 -22 21 -30 22 -88 16 -35 -4 -66 -12 -69 -17 -8 -13 -272 -12
-296 1 -17 8 -236 35 -275 33 -10 0 -18 3 -18 7 0 5 -38 12 -85 16 -47 4 -87
10 -90 15 -3 4 -46 11 -95 15 -104 8 -121 29 -25 32 60 1 78 12 90 51 5 17 -1
29 -25 52 -18 17 -43 30 -55 30 -13 0 -27 5 -30 10 -3 6 4 10 17 10 13 0 29 5
35 11 5 5 52 13 104 15 104 6 159 25 159 53 0 27 -22 41 -73 45 -45 3 -105 38
-106 62 -1 6 18 14 42 17 80 11 138 55 194 146 18 28 22 51 23 108 0 71 10 93
33 75 7 -5 30 -13 52 -17 22 -4 46 -11 53 -17 6 -6 12 -7 12 -3 0 4 6 3 13 -3
6 -5 40 -13 73 -17 56 -6 64 -5 83 16 11 13 21 30 21 38 0 24 -41 77 -69 90
-59 27 -71 37 -71 57 0 31 -45 70 -125 108 -36 17 -243 227 -271 274 -12 21
-26 32 -41 32 -30 0 -30 -31 0 -73 12 -17 27 -39 32 -48 32 -54 85 -118 143
-174 42 -41 63 -68 57 -74 -12 -11 -139 31 -165 54 -9 8 -21 15 -26 15 -6 0
-21 13 -34 30 -14 16 -29 29 -35 30 -5 0 -45 34 -89 75 -43 40 -88 75 -100 77
-15 2 -25 15 -34 48 -7 25 -17 53 -23 62 -5 10 -9 26 -9 35 0 10 -6 29 -13 43
-8 14 -20 47 -27 73 -8 26 -18 47 -22 47 -4 0 -8 7 -8 15 0 9 -9 15 -21 15
-21 0 -22 -3 -16 -71 3 -39 10 -76 15 -82 6 -7 13 -32 17 -57 4 -25 11 -49 15
-55 4 -5 10 -23 14 -40 4 -16 14 -43 21 -60 7 -16 16 -50 19 -74 5 -35 4 -42
-6 -33 -7 5 -17 11 -23 11 -23 3 -75 26 -75 33 0 5 -9 12 -19 16 -10 4 -88 73
-173 154 -152 146 -154 148 -150 185 2 21 8 43 12 48 5 6 11 36 15 68 7 54 6
57 -14 57 -26 0 -36 -23 -50 -110 -7 -40 -17 -67 -27 -73 -55 -31 -68 -77 -34
-117 21 -25 26 -45 11 -54 -5 -3 -12 -23 -15 -43 -8 -43 -83 -203 -95 -203 -5
0 -8 17 -8 38 0 64 -15 177 -23 182 -5 3 -11 41 -15 85 -4 44 -12 92 -20 107
-7 15 -16 40 -19 55 -4 17 -19 35 -38 46 -22 13 -28 21 -20 29 6 6 8 16 6 23
-3 7 -1 16 5 20 6 3 11 17 11 31 0 29 -29 33 -46 6z m21 -286 c14 -29 28 -74
31 -99 4 -26 10 -47 14 -47 4 0 11 -33 15 -74 3 -41 12 -80 19 -85 7 -6 13
-39 14 -82 1 -73 14 -98 52 -99 41 -1 102 116 122 235 5 33 13 67 18 75 4 9
11 35 15 58 4 23 12 42 17 42 6 0 30 -16 54 -35 23 -19 48 -35 54 -35 6 0 35
-22 64 -50 29 -27 58 -50 65 -50 7 0 32 -16 55 -35 24 -19 48 -35 53 -35 6 0
33 -18 61 -40 27 -22 57 -40 65 -40 9 0 19 -4 22 -10 21 -34 105 12 105 57 0
13 3 23 6 23 3 0 31 -22 62 -50 31 -27 62 -50 70 -50 8 0 25 -9 39 -20 14 -11
34 -20 44 -20 10 0 21 -4 24 -10 3 -5 15 -10 26 -10 14 0 19 -7 19 -26 0 -17
12 -38 35 -60 33 -31 35 -36 35 -99 0 -77 -16 -117 -64 -164 -27 -26 -44 -33
-90 -38 -53 -6 -56 -5 -56 17 0 13 9 41 19 64 52 111 61 134 61 159 0 48 -28
30 -63 -40 -43 -89 -84 -160 -119 -204 -15 -20 -28 -42 -28 -48 0 -7 -37 -49
-82 -95 -79 -78 -176 -149 -263 -192 -22 -10 -41 -22 -43 -26 -2 -5 -11 -8
-20 -8 -10 0 -33 -9 -53 -19 -20 -11 -53 -23 -73 -26 -20 -4 -38 -11 -41 -15
-3 -5 -24 -11 -48 -15 -23 -4 -47 -11 -53 -16 -28 -23 -330 -35 -458 -19 -92
12 -222 71 -292 132 -12 11 -37 27 -55 37 -18 10 -38 26 -43 36 -6 10 -24 32
-41 49 -16 17 -39 49 -49 71 -26 52 -55 85 -76 85 -18 0 -67 -49 -65 -65 9
-53 132 -194 183 -210 12 -3 22 -10 22 -15 0 -14 -35 -30 -64 -30 -14 0 -26
-4 -26 -10 0 -13 -77 -13 -84 -1 -4 5 -23 12 -44 16 -47 8 -77 33 -107 89 -22
42 -31 112 -16 132 11 15 86 64 99 64 7 0 12 8 12 18 0 10 5 23 11 29 6 6 12
17 13 24 6 28 21 60 159 340 78 158 146 285 151 282 4 -3 4 -8 -2 -12 -5 -3
-13 -49 -16 -101 -4 -52 -11 -99 -16 -105 -4 -5 -11 -31 -15 -57 -4 -26 -13
-49 -21 -52 -8 -3 -14 -17 -14 -31 0 -30 38 -49 79 -40 23 6 90 76 131 139 13
20 75 102 112 147 19 24 37 51 50 79 7 14 24 41 38 60 40 53 140 274 140 308
0 24 20 1 45 -52z m1417 -555 c15 -8 29 -20 32 -27 3 -9 -8 -6 -34 7 -22 12
-40 25 -40 31 0 5 3 8 8 6 4 -2 19 -10 34 -17z m-462 -476 c7 -9 36 -27 64
-40 30 -15 44 -26 36 -29 -23 -7 -155 -26 -186 -26 l-28 0 42 43 c23 23 42 48
42 55 0 17 15 15 30 -3z m-154 -204 c14 -11 33 -21 40 -21 8 0 14 -6 14 -14 0
-13 -66 -26 -142 -26 -20 0 -40 -4 -43 -10 -3 -5 -37 -10 -75 -10 -38 0 -72 5
-75 10 -3 6 0 10 7 10 7 1 31 9 53 20 22 11 45 20 50 20 6 0 37 17 70 38 52
34 61 36 67 22 3 -10 19 -27 34 -39z m54 -95 c0 -3 -4 -8 -10 -11 -5 -3 -10
-1 -10 4 0 6 5 11 10 11 6 0 10 -2 10 -4z m-1261 -27 c37 -13 38 -19 9 -46
-44 -39 -175 -90 -190 -75 -13 13 104 132 128 132 12 0 35 -5 53 -11z m811
-17 c0 -10 -3 -22 -7 -26 -4 -3 -8 -14 -9 -23 -4 -27 -26 -73 -35 -73 -4 0
-11 -16 -15 -35 -5 -27 -14 -39 -41 -51 -26 -13 -37 -14 -46 -5 -6 6 -19 11
-30 11 -18 0 -127 105 -127 123 0 6 -8 16 -17 23 -17 12 -16 13 5 15 24 2 30
3 52 12 8 3 49 8 90 12 41 4 80 10 85 15 10 8 43 16 78 19 10 0 17 -6 17 -17z
m166 -7 c5 -13 35 -15 183 -15 98 0 181 -3 185 -7 7 -7 87 -20 346 -54 47 -6
94 -15 105 -19 11 -5 27 -9 35 -9 103 -3 274 -21 283 -30 6 -6 34 -12 62 -12
82 -2 110 -11 113 -37 2 -13 -1 -28 -6 -35 -5 -7 -13 -37 -17 -67 -4 -30 -16
-89 -27 -130 -10 -41 -20 -79 -21 -85 -2 -5 -5 -14 -8 -20 -4 -5 -10 -27 -13
-49 -4 -21 -11 -46 -16 -55 -5 -9 -14 -36 -20 -61 -6 -25 -12 -49 -13 -55 -2
-5 -15 -34 -30 -63 -15 -30 -27 -61 -27 -69 0 -14 -25 -15 -197 -13 -322 5
-393 2 -393 -15 0 -8 -4 -15 -9 -15 -11 0 -21 86 -23 195 -1 85 -20 125 -59
125 -38 0 -83 -62 -61 -84 4 -4 12 -33 19 -64 15 -70 46 -183 55 -197 3 -5 9
-26 13 -45 4 -19 12 -40 17 -47 5 -6 8 -17 7 -25 -1 -7 0 -20 4 -28 3 -8 13
-41 22 -72 15 -49 31 -71 126 -170 60 -62 109 -116 109 -120 0 -4 9 -18 20
-30 60 -67 150 -178 150 -184 0 -4 41 -51 90 -105 50 -53 90 -102 90 -107 0
-6 -33 -27 -72 -47 -91 -45 -122 -63 -173 -95 -22 -13 -56 -33 -75 -43 -19 -9
-62 -33 -95 -52 -33 -19 -71 -40 -85 -47 -14 -7 -45 -26 -70 -43 -52 -36 -126
-73 -155 -77 -11 -2 -24 -6 -30 -10 -5 -3 -31 -9 -58 -13 -26 -4 -49 -11 -52
-15 -3 -5 -29 -11 -58 -15 -28 -4 -57 -11 -64 -17 -6 -5 -42 -14 -80 -20 -37
-5 -72 -14 -78 -18 -5 -4 -36 -11 -67 -14 -32 -4 -60 -11 -63 -15 -2 -5 -58
-14 -122 -21 -65 -7 -123 -17 -130 -22 -7 -5 -14 -5 -18 2 -8 13 -182 13 -190
0 -17 -27 -135 15 -135 49 0 10 3 21 7 24 3 4 8 19 9 34 7 66 16 117 25 132
10 17 33 174 50 341 5 52 13 102 18 111 5 8 12 56 16 105 4 49 10 93 13 99 3
5 5 25 3 43 -1 18 2 38 7 45 5 7 13 51 17 99 4 49 11 90 16 94 5 3 9 21 9 40
0 20 5 44 11 55 11 21 12 30 32 211 6 64 15 120 20 124 4 4 7 26 7 49 0 31 -6
47 -25 65 -24 22 -25 22 -51 5 -26 -17 -27 -18 -20 -104 7 -95 -3 -141 -34
-156 -10 -6 -63 -32 -117 -58 -54 -27 -106 -53 -115 -58 -13 -7 -18 -5 -18 6
0 19 -9 19 -29 1 -15 -13 -60 -39 -157 -92 -22 -12 -56 -25 -75 -29 -31 -6
-98 -33 -141 -55 -19 -11 -29 -1 -50 50 -8 19 -21 49 -28 65 -8 17 -13 33 -12
37 1 3 -10 27 -23 53 -14 25 -28 65 -31 88 -4 23 -11 47 -16 54 -5 7 -7 17 -4
22 4 5 2 12 -4 16 -5 3 -10 24 -10 45 0 31 8 48 39 84 44 50 192 185 204 186
4 0 38 25 74 55 37 30 71 55 76 55 5 0 31 18 57 40 26 22 52 40 58 40 5 0 16
7 23 16 8 9 28 26 45 38 17 11 60 41 95 66 74 52 95 65 129 80 13 6 27 14 30
18 3 4 21 15 41 25 41 21 54 17 116 -35 61 -51 129 -78 197 -78 59 0 64 2 96
38 51 54 61 77 66 150 3 36 7 69 10 74 3 4 30 8 60 8 39 0 56 -4 60 -15z
m-776 -23 c8 -3 36 -6 63 -7 26 -1 50 -5 54 -9 3 -3 0 -6 -7 -6 -8 0 -35 -18
-61 -40 -26 -22 -51 -40 -54 -40 -4 0 -24 -13 -44 -29 -20 -16 -51 -32 -69
-36 l-33 -7 21 44 c12 23 29 51 37 60 10 11 14 30 11 52 -4 34 -4 34 32 29 19
-3 42 -7 50 -11z m3184 -41 c3 -4 20 -11 38 -15 45 -9 140 -67 213 -130 46
-39 112 -157 121 -217 4 -22 11 -42 15 -45 12 -7 11 -151 -1 -159 -5 -3 -10
-18 -10 -33 0 -15 -6 -39 -14 -54 -8 -15 -17 -40 -21 -57 -3 -16 -22 -50 -41
-75 -19 -25 -34 -48 -34 -53 0 -13 -93 -103 -107 -103 -7 0 -13 -4 -13 -10 0
-5 -4 -10 -10 -10 -5 0 -26 -11 -46 -25 -20 -14 -55 -30 -78 -36 -22 -6 -46
-15 -53 -21 -17 -14 -141 -14 -155 0 -7 7 -19 12 -27 12 -8 0 -29 11 -47 25
-18 14 -36 25 -41 25 -5 0 -41 33 -82 74 -50 51 -73 82 -74 100 -1 14 -5 26
-9 26 -5 0 -8 5 -8 11 0 15 -163 189 -177 189 -7 0 -13 -7 -13 -15 0 -9 -9
-15 -23 -15 -13 0 -27 -4 -33 -10 -5 -5 -38 -13 -72 -16 -34 -4 -62 -10 -62
-15 0 -4 -8 -6 -17 -5 -10 2 -27 -3 -38 -10 -11 -8 -31 -14 -46 -14 -14 0 -29
-3 -33 -7 -6 -7 -157 -33 -163 -29 -5 4 20 110 32 133 8 15 15 40 15 55 0 15
5 30 10 33 6 4 8 10 5 15 -3 5 -1 11 5 15 5 3 12 28 16 55 4 28 10 50 14 50 5
0 11 14 15 30 l7 30 84 0 c49 0 92 -5 104 -12 15 -10 27 -10 56 1 26 9 39 10
47 2 6 -6 43 -11 81 -11 43 0 82 -6 100 -15 15 -8 34 -15 41 -15 20 0 62 56
70 92 7 33 76 122 129 168 16 14 61 41 100 61 63 33 80 37 148 38 42 1 79 -3
82 -8z m-3898 -1018 c3 -10 11 -29 17 -43 6 -14 11 -29 11 -35 1 -5 11 -30 23
-54 13 -24 23 -51 23 -60 0 -17 -88 -111 -105 -111 -5 0 -23 -11 -40 -24 -16
-14 -63 -35 -104 -48 -40 -13 -86 -35 -102 -49 -25 -23 -27 -31 -22 -65 3 -22
9 -43 13 -49 5 -5 14 -39 20 -75 7 -36 18 -71 23 -78 13 -17 13 -178 0 -195
-5 -6 -16 -31 -23 -55 -17 -53 -129 -178 -177 -199 -18 -7 -33 -17 -33 -22 0
-5 -15 -13 -32 -16 -18 -4 -38 -12 -45 -17 -7 -5 -17 -7 -22 -4 -5 4 -12 2
-15 -3 -10 -16 -128 -23 -181 -11 -145 32 -231 113 -309 289 -15 33 -14 294 0
312 7 8 15 30 19 49 4 19 14 44 21 55 8 11 14 26 14 33 0 8 14 31 30 52 17 21
30 41 30 45 0 10 77 87 103 102 20 11 34 18 94 45 11 6 26 8 31 4 6 -3 13 -2
17 4 3 5 28 10 55 10 27 0 52 -5 55 -10 4 -6 11 -8 17 -4 5 3 24 -1 41 -9 18
-8 50 -23 72 -33 22 -11 47 -25 56 -32 14 -11 23 -7 60 23 61 50 139 125 139
135 0 14 114 112 166 142 37 22 53 22 60 1z m2598 -878 c3 -8 16 -20 28 -25
13 -6 30 -14 38 -19 8 -5 26 -14 40 -20 28 -12 62 -33 70 -42 3 -3 17 -12 32
-20 91 -48 158 -84 193 -105 22 -13 51 -29 65 -36 14 -7 27 -15 30 -18 3 -3
34 -18 70 -35 36 -16 67 -33 70 -36 3 -3 18 -9 34 -13 16 -4 41 -16 54 -27 14
-10 31 -19 38 -19 8 0 14 -4 14 -9 0 -5 14 -12 30 -16 17 -4 30 -10 30 -14 0
-4 18 -14 40 -21 75 -25 74 -27 -74 -182 -75 -78 -136 -146 -136 -151 0 -5
-47 -60 -105 -122 -58 -62 -105 -116 -105 -120 0 -5 -36 -47 -80 -96 -44 -48
-80 -90 -80 -95 0 -4 -9 -16 -20 -28 -11 -12 -43 -47 -71 -78 -29 -32 -56 -58
-61 -58 -5 0 -26 -17 -46 -38 -20 -21 -50 -44 -66 -52 -16 -8 -43 -32 -59 -52
l-30 -38 -53 58 c-29 31 -53 61 -54 66 0 4 -31 43 -70 86 -38 43 -70 81 -70
85 0 4 -11 19 -24 33 -68 75 -156 180 -156 187 0 4 -20 30 -44 58 -24 29 -46
62 -50 73 -4 12 -15 29 -26 39 -11 10 -20 23 -20 30 0 7 -12 30 -27 52 -16 21
-33 48 -39 59 -6 10 -25 29 -43 41 -30 20 -34 21 -59 6 -42 -24 -68 -92 -42
-108 6 -3 10 -28 10 -54 0 -26 7 -56 15 -67 16 -21 22 -199 7 -208 -5 -3 -12
-78 -15 -167 -4 -89 -11 -167 -16 -173 -5 -6 -14 -51 -21 -99 -8 -48 -17 -90
-22 -93 -4 -3 -8 -20 -8 -39 0 -24 -7 -39 -25 -53 -23 -18 -37 -20 -138 -16
-61 2 -121 8 -132 13 -11 5 -85 15 -165 22 -80 6 -154 13 -165 14 -11 1 -27 4
-35 7 -8 4 -60 9 -114 13 -55 3 -105 10 -110 14 -6 5 -78 14 -161 20 -82 6
-154 16 -159 21 -6 6 -18 10 -28 10 -16 0 -17 3 -8 21 8 15 8 24 0 34 -8 9 -9
26 -4 47 4 18 8 61 8 95 1 34 4 65 8 68 4 4 10 34 14 66 4 32 13 64 20 70 8 6
14 22 14 35 0 12 4 25 9 28 4 3 14 34 21 68 6 35 15 68 20 73 4 6 11 28 15 50
4 22 10 45 14 50 4 6 14 31 21 58 7 26 16 50 21 52 4 3 10 23 14 45 4 22 10
40 15 40 4 0 13 26 19 58 20 103 26 110 104 118 37 4 67 10 67 13 0 4 41 8 91
10 50 1 102 6 115 11 14 6 45 10 69 10 24 0 46 4 49 9 3 4 36 11 73 15 37 4
72 11 78 16 5 4 46 13 90 20 44 7 85 15 90 20 6 4 33 11 60 15 28 4 55 10 60
15 6 4 42 13 80 20 39 7 75 17 82 22 7 5 14 5 17 -1 10 -15 53 -6 93 20 70 45
78 50 106 62 15 6 27 15 27 18 0 4 12 14 28 22 15 8 54 29 86 46 33 17 62 34
65 39 4 4 27 18 54 32 109 57 133 71 157 88 14 10 41 24 60 32 19 7 44 20 55
27 25 17 32 16 39 -2z m916 -725 c17 0 30 -4 30 -9 0 -5 14 -11 32 -15 17 -3
50 -22 74 -41 23 -19 48 -35 55 -35 15 0 49 -29 49 -42 0 -5 12 -20 28 -33 15
-12 38 -44 51 -70 28 -57 23 -112 -14 -161 -14 -18 -25 -35 -25 -38 0 -6 -122
-123 -170 -164 -19 -16 -60 -42 -90 -58 -30 -16 -57 -32 -60 -35 -3 -3 -23
-12 -45 -20 -22 -7 -44 -16 -50 -20 -5 -4 -28 -10 -50 -14 -22 -4 -44 -11 -50
-15 -14 -11 -143 -30 -199 -30 -25 0 -48 -4 -51 -10 -4 -6 -69 -10 -163 -10
l-156 0 42 43 c23 23 42 46 42 51 0 4 28 39 63 77 34 38 64 75 66 82 2 7 19
25 38 41 18 16 33 33 33 38 0 6 38 51 84 102 46 50 85 96 87 102 2 6 54 64
114 128 61 65 112 124 115 131 3 7 16 24 30 37 24 23 26 23 43 6 10 -10 31
-18 47 -18z m-2505 -1049 c5 -5 64 -12 130 -16 66 -4 125 -11 130 -15 6 -4 51
-10 100 -14 136 -10 175 -17 175 -31 0 -7 -16 -36 -35 -65 -19 -29 -35 -55
-35 -58 0 -18 -150 -192 -166 -192 -3 0 -24 -15 -47 -33 -47 -36 -176 -102
-222 -113 -16 -4 -34 -10 -40 -14 -45 -35 -359 -40 -409 -7 -14 10 -31 17 -37
17 -7 0 -31 16 -55 35 -23 19 -47 35 -53 35 -6 0 -11 5 -11 11 0 6 -9 22 -20
36 -22 28 -29 126 -10 138 6 4 7 11 4 17 -6 9 6 42 27 78 5 8 16 29 24 47 8
18 42 61 75 96 l60 65 202 -5 c111 -2 207 -8 213 -12z"/>
<path d="M3531 5346 c-31 -33 -22 -76 20 -95 28 -12 32 -12 59 14 33 31 33 45
0 80 -29 31 -50 32 -79 1z"/>
<path d="M2972 5237 c-28 -30 -28 -61 0 -87 28 -26 49 -25 76 3 28 30 28 58
-1 85 -30 28 -48 28 -75 -1z"/>
<path d="M3405 4872 c-6 -5 -64 -14 -129 -21 -66 -6 -125 -16 -130 -20 -6 -5
-33 -12 -61 -16 -27 -4 -54 -11 -60 -15 -5 -4 -29 -11 -52 -15 -52 -8 -78 -27
-70 -49 7 -17 62 -23 71 -7 4 5 25 12 49 16 23 4 47 11 52 15 6 4 44 13 85 20
41 6 83 16 92 20 9 5 57 12 108 16 50 4 93 11 96 15 3 5 97 9 210 9 197 0 204
1 204 20 0 19 -7 20 -228 20 -125 0 -232 -4 -237 -8z"/>
<path d="M4548 5964 c-15 -8 -30 -23 -33 -34 -9 -29 4 -80 21 -80 8 0 17 -7
20 -15 4 -8 12 -15 20 -15 7 0 29 -13 47 -30 19 -16 38 -30 42 -30 4 0 21 -10
38 -22 18 -13 43 -30 58 -38 81 -47 109 -66 109 -71 0 -3 -42 -11 -92 -18 -51
-7 -102 -16 -113 -21 -11 -5 -41 -11 -67 -15 -38 -5 -48 -10 -48 -24 0 -13 9
-20 30 -23 17 -3 33 -2 35 2 3 4 37 11 77 15 40 3 78 11 83 15 6 5 50 11 98
14 49 3 92 8 96 11 5 2 11 16 13 30 5 24 -17 55 -38 55 -6 0 -25 16 -44 35
-19 19 -39 35 -45 35 -12 0 -104 73 -159 127 -110 105 -120 112 -148 97z"/>
</g>
</svg>
